<mxfile host="65bd71144e">
    <diagram id="fcTgXLqhXXAIfOFIFdDv" name="Page-1">
        <mxGraphModel dx="564" dy="209" grid="1" gridSize="10" guides="1" tooltips="1" connect="1" arrows="1" fold="1" page="1" pageScale="1" pageWidth="827" pageHeight="1169" math="0" shadow="0">
            <root>
                <mxCell id="0"/>
                <mxCell id="1" parent="0"/>
                <mxCell id="2" value="" style="edgeStyle=none;html=1;" parent="1" source="3" target="5" edge="1">
                    <mxGeometry relative="1" as="geometry"/>
                </mxCell>
                <mxCell id="3" value="INICIO" style="ellipse;whiteSpace=wrap;html=1;fillColor=#6d8764;fontColor=#ffffff;strokeColor=#3A5431;" parent="1" vertex="1">
                    <mxGeometry x="300" y="190" width="120" height="80" as="geometry"/>
                </mxCell>
                <mxCell id="4" value="" style="edgeStyle=none;html=1;" parent="1" source="5" target="7" edge="1">
                    <mxGeometry relative="1" as="geometry"/>
                </mxCell>
                <mxCell id="5" value="X" style="shape=parallelogram;perimeter=parallelogramPerimeter;whiteSpace=wrap;html=1;fixedSize=1;fillColor=#647687;fontColor=#ffffff;strokeColor=#314354;" parent="1" vertex="1">
                    <mxGeometry x="300" y="352" width="120" height="60" as="geometry"/>
                </mxCell>
                <mxCell id="6" value="" style="edgeStyle=none;html=1;" parent="1" source="7" target="10" edge="1">
                    <mxGeometry relative="1" as="geometry"/>
                </mxCell>
                <mxCell id="7" value="r = X % 10" style="whiteSpace=wrap;html=1;fillColor=#76608a;fontColor=#ffffff;strokeColor=#432D57;" parent="1" vertex="1">
                    <mxGeometry x="300" y="491" width="120" height="60" as="geometry"/>
                </mxCell>
                <mxCell id="8" value="" style="edgeStyle=none;html=1;" parent="1" source="10" target="15" edge="1">
                    <mxGeometry relative="1" as="geometry">
                        <Array as="points">
                            <mxPoint x="530" y="670"/>
                        </Array>
                        <mxPoint x="530" y="710" as="targetPoint"/>
                    </mxGeometry>
                </mxCell>
                <mxCell id="9" value="" style="edgeStyle=none;html=1;entryX=0.5;entryY=0;entryDx=0;entryDy=0;" parent="1" source="10" target="14" edge="1">
                    <mxGeometry relative="1" as="geometry">
                        <Array as="points">
                            <mxPoint x="210" y="670"/>
                        </Array>
                        <mxPoint x="210" y="710" as="targetPoint"/>
                    </mxGeometry>
                </mxCell>
                <mxCell id="10" value="r % 2 == 0" style="rhombus;whiteSpace=wrap;html=1;fillColor=#a0522d;fontColor=#ffffff;strokeColor=#6D1F00;" parent="1" vertex="1">
                    <mxGeometry x="320" y="630" width="80" height="80" as="geometry"/>
                </mxCell>
                <mxCell id="11" style="edgeStyle=none;html=1;exitX=0.517;exitY=0.825;exitDx=0;exitDy=0;exitPerimeter=0;" parent="1" source="15" target="13" edge="1">
                    <mxGeometry relative="1" as="geometry">
                        <Array as="points">
                            <mxPoint x="530" y="850"/>
                            <mxPoint x="380" y="850"/>
                        </Array>
                        <mxPoint x="530.96" y="780" as="sourcePoint"/>
                    </mxGeometry>
                </mxCell>
                <mxCell id="12" value="" style="edgeStyle=none;html=1;" parent="1" target="13" edge="1">
                    <mxGeometry relative="1" as="geometry">
                        <Array as="points">
                            <mxPoint x="210" y="850"/>
                            <mxPoint x="380" y="850"/>
                        </Array>
                        <mxPoint x="210" y="770" as="sourcePoint"/>
                    </mxGeometry>
                </mxCell>
                <mxCell id="13" value="FIN" style="ellipse;whiteSpace=wrap;html=1;fillColor=#6d8764;fontColor=#ffffff;strokeColor=#3A5431;" parent="1" vertex="1">
                    <mxGeometry x="320" y="890" width="120" height="60" as="geometry"/>
                </mxCell>
                <mxCell id="14" value="NO ES PAR" style="shape=document;whiteSpace=wrap;html=1;boundedLbl=1;fillColor=#6a00ff;fontColor=#ffffff;strokeColor=#3700CC;" parent="1" vertex="1">
                    <mxGeometry x="150" y="710" width="120" height="80" as="geometry"/>
                </mxCell>
                <mxCell id="15" value="PAR" style="shape=document;whiteSpace=wrap;html=1;boundedLbl=1;fillColor=#a20025;strokeColor=#6F0000;fontColor=#ffffff;" parent="1" vertex="1">
                    <mxGeometry x="470" y="710" width="120" height="80" as="geometry"/>
                </mxCell>
            </root>
        </mxGraphModel>
    </diagram>
</mxfile>